<?xml version="1.0" encoding="utf-8"?>
<svg version="1.1" xmlns="http://www.w3.org/2000/svg" xmlns:xlink="http://www.w3.org/1999/xlink" viewBox="0 0 380 136" xml:space="preserve">
<g>
	<g fill="#9e9e9e">
		<path d="M66.5,74.6v53h-9.1v-8c-1.9,2.7-4.5,4.9-7.6,6.4c-3.2,1.5-6.6,2.3-10.4,2.3c-7.1,0-12.6-2-16.7-5.9 c-4.1-3.9-6.1-9.6-6.1-17.3V74.6h9.6V104c0,5.1,1.2,9,3.7,11.6c2.5,2.6,6,4,10.6,4c5.1,0,9.1-1.5,12-4.6c2.9-3.1,4.4-7.4,4.4-13 V74.6H66.5z"/>
		<path d="M125.1,80c4,3.9,5.9,9.6,5.9,17.1v30.5h-9.6V98.2c0-5.1-1.2-9-3.7-11.6c-2.5-2.6-6-3.9-10.6-3.9 c-5.2,0-9.3,1.5-12.3,4.5c-3,3-4.5,7.4-4.5,13.1v27.3h-9.6v-53H90v8c1.9-2.7,4.6-4.8,7.9-6.3c3.3-1.5,7.1-2.2,11.3-2.2 C115.8,74.1,121.2,76.1,125.1,80z"/>
		<path d="M195.2,53.4v74.2H186v-8.4c-2.1,2.9-4.8,5.2-8.1,6.7c-3.3,1.5-6.9,2.3-10.8,2.3c-5.1,0-9.7-1.1-13.8-3.4 c-4.1-2.3-7.3-5.5-9.5-9.6c-2.3-4.1-3.5-8.8-3.5-14.1c0-5.3,1.1-10,3.5-14.1c2.3-4.1,5.5-7.2,9.5-9.5c4.1-2.3,8.7-3.4,13.8-3.4 c3.8,0,7.3,0.7,10.5,2.1c3.2,1.4,5.9,3.6,8,6.4V53.4H195.2z M177,117.5c2.7-1.6,4.9-3.8,6.4-6.6c1.5-2.8,2.3-6.1,2.3-9.8 c0-3.7-0.8-6.9-2.3-9.8c-1.5-2.8-3.7-5-6.4-6.5c-2.7-1.5-5.8-2.3-9.1-2.3c-3.4,0-6.5,0.8-9.1,2.3c-2.7,1.5-4.8,3.7-6.4,6.5 c-1.6,2.8-2.3,6.1-2.3,9.8c0,3.7,0.8,6.9,2.3,9.8c1.6,2.8,3.7,5,6.4,6.6c2.7,1.6,5.8,2.4,9.1,2.4C171.2,119.8,174.3,119,177,117.5 z"/>
		<path d="M209.5,62.6c-1.2-1.2-1.8-2.7-1.8-4.4c0-1.7,0.6-3.2,1.8-4.5c1.2-1.2,2.8-1.9,4.7-1.9c1.9,0,3.4,0.6,4.6,1.8 c1.2,1.2,1.9,2.6,1.9,4.4c0,1.8-0.6,3.3-1.9,4.6c-1.2,1.2-2.8,1.8-4.6,1.8C212.3,64.4,210.8,63.8,209.5,62.6z M209.4,74.6h9.6v53 h-9.6V74.6z"/>
		<path d="M241.9,124.7c-4.2-2.3-7.5-5.6-10-9.6c-2.4-4.1-3.6-8.8-3.6-14s1.2-9.9,3.6-14c2.4-4.1,5.7-7.3,10-9.6 c4.2-2.3,9-3.5,14.5-3.5c4.8,0,9.1,1,12.8,2.9c3.8,1.9,6.7,4.7,8.8,8.4l-7.3,4.7c-1.7-2.5-3.7-4.4-6.2-5.7 c-2.5-1.3-5.2-1.9-8.2-1.9c-3.5,0-6.6,0.8-9.3,2.3c-2.8,1.5-4.9,3.7-6.5,6.5c-1.6,2.8-2.3,6.1-2.3,9.8c0,3.7,0.8,7,2.3,9.9 c1.6,2.8,3.7,5,6.5,6.5c2.8,1.5,5.9,2.3,9.3,2.3c3,0,5.7-0.6,8.2-1.9c2.5-1.3,4.5-3.2,6.2-5.7l7.3,4.6c-2.1,3.7-5,6.5-8.8,8.4 c-3.8,2-8,3-12.8,3C251,128.2,246.2,127.1,241.9,124.7z"/>
		<path d="M286.4,74.6h9.6v53h-9.6V74.6z"/>
	</g>
	<path fill="#f57c00" d="M353,21.7c0.4-2.1,0.1-4.4-1-6.5c-2.6-5-8.8-7-13.8-4.4c-2.4,1.2-4.1,3.3-4.9,5.6 c-0.4,1.1-0.6,2.2-0.6,3.3c0,1.7,0.3,3.3,1.1,4.9c1.2,2.4,3.2,4,5.5,4.9l-9.4,29.1c-2.9-0.5-6-0.2-8.8,1.3 c-2.8,1.4-4.9,3.7-6.1,6.4l-17.6-5.7c0.1-1.2-0.1-2.4-0.7-3.5c-1.7-3.3-5.8-4.7-9.2-3c-3.4,1.7-4.7,5.9-3,9.2 c1.7,3.4,5.8,4.7,9.2,3c1.1-0.6,2-1.4,2.6-2.4l17.6,5.7c-0.5,2.9-0.2,6,1.3,8.8c1.4,2.8,3.7,4.9,6.4,6.1l-7.3,22.6 c-1.7,0-3.3,0.3-4.9,1.1c-1,0.5-1.9,1.2-2.6,1.9c-0.8,0.8-1.4,1.7-1.9,2.7c-1.4,2.8-1.4,6.2,0.1,9.2c2.6,5,8.8,7,13.8,4.4 c3-1.5,4.9-4.3,5.4-7.4c0.2-1.1,0.2-2.2,0-3.3c-0.2-1.1-0.5-2.1-1-3.1c-1.2-2.4-3.2-4-5.5-4.9l7.2-22.2c2.9,0.5,6,0.2,8.8-1.3 c2.8-1.4,4.9-3.7,6.1-6.4l17.6,5.7c-0.1,1.2,0.1,2.4,0.7,3.5c1.7,3.4,5.8,4.7,9.2,3c3.4-1.7,4.7-5.8,3-9.2c-1.7-3.4-5.8-4.7-9.2-3 c-1.1,0.6-2,1.4-2.6,2.4l-17.6-5.7c0.4-2.4,0.3-4.8-0.5-7l15.5-7.9c2.8,3.7,8.3,5.1,12.8,2.8c5-2.6,7-8.8,4.4-13.8 c-2.6-5-8.8-7-13.8-4.4c-4.5,2.3-6.6,7.5-4.9,12.5l-15.5,7.9c-1.6-2.4-3.5-3.9-5.7-4.9l9.5-29.5c1.7,0,3.3-0.3,4.9-1.1 c1.9-1,3.3-2.4,4.3-4.2C352.4,23.8,352.8,22.8,353,21.7z M362.6,80.8c1.7-0.9,3.7-0.2,4.6,1.5c0.9,1.7,0.2,3.7-1.5,4.6 c-1.7,0.9-3.7,0.2-4.6-1.5C360.3,83.8,360.9,81.7,362.6,80.8z M310.1,111.7c0.3-0.2,0.5-0.4,0.9-0.5c3.4-1.7,7.5-0.4,9.2,3 c0.2,0.3,0.3,0.6,0.4,0.9c0.4,1.1,0.5,2.3,0.2,3.4c-0.4,2-1.6,3.8-3.6,4.8c-3.4,1.7-7.5,0.4-9.2-3c-1-2-1-4.2-0.1-6 C308.4,113.3,309.1,112.4,310.1,111.7z M292.1,63.2c-1.7,0.9-3.7,0.2-4.6-1.5c-0.9-1.7-0.2-3.7,1.5-4.6c1.7-0.9,3.7-0.2,4.6,1.5 C294.5,60.3,293.8,62.4,292.1,63.2z M357.8,56.4c-1.7-3.4-0.4-7.5,3-9.2c3.4-1.7,7.5-0.4,9.2,3c1.7,3.4,0.4,7.5-3,9.2 C363.6,61.1,359.5,59.8,357.8,56.4z M322.7,62.9c5-2.6,11.2-0.6,13.8,4.4c2.6,5,0.6,11.2-4.4,13.8c-5,2.6-11.2,0.6-13.8-4.4 C315.7,71.7,317.7,65.5,322.7,62.9z M349.7,20.2c-0.1,1.1-0.4,2.2-1,3.2c-0.6,1.1-1.6,2-2.7,2.6c-3.4,1.7-7.5,0.4-9.2-3 c-0.5-1-0.7-2-0.7-3.1c0-1.1,0.3-2.2,0.8-3.2c0.6-1.2,1.6-2.2,2.9-2.9c3.3-1.7,7.5-0.4,9.2,3C349.5,17.9,349.8,19,349.7,20.2z"/>
</g>
</svg>
