<?xml version="1.0" standalone="no"?>
<!DOCTYPE svg PUBLIC "-//W3C//DTD SVG 20010904//EN"
 "http://www.w3.org/TR/2001/REC-SVG-20010904/DTD/svg10.dtd">
<svg version="1.0" xmlns="http://www.w3.org/2000/svg"
 width="500.000000pt" height="500.000000pt" viewBox="0 0 500.000000 500.000000"
 preserveAspectRatio="xMidYMid meet">
<metadata>
Created by potrace 1.11, written by Peter Selinger 2001-2013
</metadata>
<g transform="translate(0.000000,500.000000) scale(0.100000,-0.100000)"
fill="#000000" stroke="none">
<path d="M3000 4976 c-222 -45 -373 -259 -340 -481 11 -73 17 -92 41 -144 28
-58 131 -160 187 -185 36 -16 42 -23 37 -40 -3 -12 -8 -28 -10 -36 -2 -8 -18
-58 -35 -110 -17 -52 -72 -221 -121 -375 -50 -154 -117 -361 -149 -460 -32
-99 -61 -190 -64 -201 -6 -20 -12 -21 -91 -19 -209 8 -414 -100 -515 -272
l-35 -59 -160 52 c-88 29 -253 82 -367 119 -115 37 -208 72 -209 78 -6 123
-60 211 -164 265 -67 35 -177 37 -246 5 -134 -61 -202 -220 -154 -362 65 -196
326 -254 476 -106 41 40 50 44 70 36 13 -6 159 -53 324 -106 165 -53 318 -102
339 -110 l39 -12 2 -114 c2 -87 8 -128 24 -173 29 -82 75 -161 125 -214 42
-45 146 -122 165 -122 16 0 14 -17 -18 -115 -16 -49 -72 -223 -124 -385 -53
-162 -108 -332 -122 -377 -24 -76 -29 -83 -53 -84 -224 -6 -415 -201 -414
-423 1 -129 49 -244 138 -325 216 -198 558 -136 683 124 60 125 60 255 1 380
-45 94 -103 153 -202 204 -16 8 -28 18 -28 23 0 5 17 62 39 126 21 64 75 232
120 372 46 140 95 293 111 340 l28 84 84 -3 c208 -7 399 93 508 265 23 36 47
64 53 61 7 -2 86 -28 177 -57 507 -162 545 -175 546 -196 5 -86 40 -160 101
-214 115 -102 287 -95 398 15 106 106 108 281 5 399 -54 61 -121 90 -210 90
-91 0 -146 -22 -207 -83 l-42 -43 -366 118 -365 118 1 96 c1 52 -4 119 -11
148 -8 28 -12 53 -9 55 2 3 105 55 229 117 124 62 267 135 318 162 l94 49 49
-46 c27 -26 80 -61 117 -78 63 -30 73 -32 182 -32 109 0 118 2 180 32 158 78
249 222 250 394 1 274 -243 473 -520 424 -138 -24 -265 -135 -318 -277 -18
-48 -21 -75 -18 -160 1 -57 5 -109 7 -117 5 -17 15 -11 -358 -201 l-282 -143
-28 34 c-47 59 -106 110 -160 141 -29 16 -50 35 -48 41 2 7 36 113 75 237 39
124 107 333 150 465 43 132 97 301 120 375 24 74 47 139 51 145 5 5 28 10 51
12 168 10 323 141 372 316 89 311 -187 607 -504 543z m223 -173 c168 -92 199
-318 62 -455 -138 -137 -371 -96 -457 82 -43 88 -25 229 40 305 30 36 90 77
134 91 63 20 159 10 221 -23z m870 -1401 c97 -43 169 -159 168 -269 -1 -158
-141 -286 -303 -278 -145 8 -255 117 -266 266 -6 92 16 156 77 218 84 86 215
111 324 63z m-3144 -431 c122 -87 70 -261 -77 -261 -77 0 -135 60 -136 140 -1
59 23 96 82 127 48 24 93 22 131 -6z m1663 -233 c197 -94 292 -301 232 -508
-76 -261 -370 -385 -617 -259 -89 46 -186 171 -215 279 -10 38 -9 156 2 205
23 101 118 222 214 273 79 42 121 52 223 49 74 -3 95 -7 161 -39z m1471 -786
c57 -54 59 -149 3 -201 -131 -123 -324 51 -208 189 54 63 145 69 205 12z
m-2121 -1243 c55 -14 129 -78 163 -140 59 -110 30 -260 -67 -344 -149 -127
-371 -75 -451 104 -29 65 -29 171 1 228 71 137 202 193 354 152z"/>
</g>
</svg>
